<mxfile host="www.draw.io" modified="2020-03-02T10:52:58.020Z" agent="Mozilla/5.0 (Windows NT 10.0; Win64; x64) AppleWebKit/537.36 (KHTML, like Gecko) Chrome/78.0.3904.108 Safari/537.36" etag="sw3i9gNnymY9AFAVDS43" version="12.7.9" type="github">
  <diagram id="oXF-2eut9BK9zN1KzW-3" name="第 1 页">
    <mxGraphModel dx="1673" dy="839" grid="1" gridSize="10" guides="1" tooltips="1" connect="1" arrows="1" fold="1" page="1" pageScale="1" pageWidth="827" pageHeight="1169" math="0" shadow="0">
      <root>
        <mxCell id="0" />
        <mxCell id="1" parent="0" />
        <mxCell id="cQsBoIsvARez0R9mO50q-1" value="" style="rounded=0;whiteSpace=wrap;html=1;" vertex="1" parent="1">
          <mxGeometry x="290" y="60" width="230" height="240" as="geometry" />
        </mxCell>
        <mxCell id="cQsBoIsvARez0R9mO50q-2" value="Jetty Server&lt;br&gt;（内嵌的Web服务器）" style="text;html=1;strokeColor=none;fillColor=none;align=center;verticalAlign=middle;whiteSpace=wrap;rounded=0;" vertex="1" parent="1">
          <mxGeometry x="340" y="70" width="130" height="30" as="geometry" />
        </mxCell>
        <mxCell id="cQsBoIsvARez0R9mO50q-5" style="edgeStyle=orthogonalEdgeStyle;rounded=0;orthogonalLoop=1;jettySize=auto;html=1;entryX=0.5;entryY=0;entryDx=0;entryDy=0;" edge="1" parent="1" source="cQsBoIsvARez0R9mO50q-3" target="cQsBoIsvARez0R9mO50q-4">
          <mxGeometry relative="1" as="geometry" />
        </mxCell>
        <mxCell id="cQsBoIsvARez0R9mO50q-3" value="Connector&lt;br&gt;连接组件" style="rounded=0;whiteSpace=wrap;html=1;" vertex="1" parent="1">
          <mxGeometry x="345" y="130" width="120" height="50" as="geometry" />
        </mxCell>
        <mxCell id="cQsBoIsvARez0R9mO50q-13" style="edgeStyle=orthogonalEdgeStyle;rounded=0;orthogonalLoop=1;jettySize=auto;html=1;" edge="1" parent="1" source="cQsBoIsvARez0R9mO50q-4" target="cQsBoIsvARez0R9mO50q-12">
          <mxGeometry relative="1" as="geometry" />
        </mxCell>
        <mxCell id="cQsBoIsvARez0R9mO50q-14" value="解析请求" style="text;html=1;align=center;verticalAlign=middle;resizable=0;points=[];labelBackgroundColor=#ffffff;" vertex="1" connectable="0" parent="cQsBoIsvARez0R9mO50q-13">
          <mxGeometry x="-0.26" relative="1" as="geometry">
            <mxPoint y="7.93" as="offset" />
          </mxGeometry>
        </mxCell>
        <mxCell id="cQsBoIsvARez0R9mO50q-4" value="FlumeHTTPServlet&lt;br&gt;处理所有请求" style="rounded=0;whiteSpace=wrap;html=1;" vertex="1" parent="1">
          <mxGeometry x="345" y="220" width="120" height="50" as="geometry" />
        </mxCell>
        <mxCell id="cQsBoIsvARez0R9mO50q-8" style="edgeStyle=orthogonalEdgeStyle;rounded=0;orthogonalLoop=1;jettySize=auto;html=1;entryX=0;entryY=0.5;entryDx=0;entryDy=0;" edge="1" parent="1" source="cQsBoIsvARez0R9mO50q-6" target="cQsBoIsvARez0R9mO50q-7">
          <mxGeometry relative="1" as="geometry">
            <Array as="points">
              <mxPoint x="100" y="155" />
            </Array>
          </mxGeometry>
        </mxCell>
        <mxCell id="cQsBoIsvARez0R9mO50q-9" value="HTTP请求&lt;br&gt;用户行为日志" style="text;html=1;align=center;verticalAlign=middle;resizable=0;points=[];labelBackgroundColor=#ffffff;" vertex="1" connectable="0" parent="cQsBoIsvARez0R9mO50q-8">
          <mxGeometry x="-0.4545" y="-1" relative="1" as="geometry">
            <mxPoint as="offset" />
          </mxGeometry>
        </mxCell>
        <mxCell id="cQsBoIsvARez0R9mO50q-6" value="Nginx&lt;br&gt;反向代理服务器" style="rounded=0;whiteSpace=wrap;html=1;" vertex="1" parent="1">
          <mxGeometry x="40" y="55" width="120" height="60" as="geometry" />
        </mxCell>
        <mxCell id="cQsBoIsvARez0R9mO50q-10" style="edgeStyle=orthogonalEdgeStyle;rounded=0;orthogonalLoop=1;jettySize=auto;html=1;" edge="1" parent="1" source="cQsBoIsvARez0R9mO50q-7" target="cQsBoIsvARez0R9mO50q-3">
          <mxGeometry relative="1" as="geometry" />
        </mxCell>
        <mxCell id="cQsBoIsvARez0R9mO50q-11" value="监听请求" style="text;html=1;align=center;verticalAlign=middle;resizable=0;points=[];labelBackgroundColor=#ffffff;" vertex="1" connectable="0" parent="cQsBoIsvARez0R9mO50q-10">
          <mxGeometry x="-0.2" y="1" relative="1" as="geometry">
            <mxPoint as="offset" />
          </mxGeometry>
        </mxCell>
        <mxCell id="cQsBoIsvARez0R9mO50q-7" value="port&lt;br&gt;端口号" style="rounded=0;whiteSpace=wrap;html=1;" vertex="1" parent="1">
          <mxGeometry x="170" y="140" width="60" height="30" as="geometry" />
        </mxCell>
        <mxCell id="cQsBoIsvARez0R9mO50q-17" style="edgeStyle=orthogonalEdgeStyle;rounded=0;orthogonalLoop=1;jettySize=auto;html=1;entryX=0.5;entryY=0;entryDx=0;entryDy=0;" edge="1" parent="1" source="cQsBoIsvARez0R9mO50q-12" target="cQsBoIsvARez0R9mO50q-15">
          <mxGeometry relative="1" as="geometry" />
        </mxCell>
        <mxCell id="cQsBoIsvARez0R9mO50q-18" value="batch处理" style="text;html=1;align=center;verticalAlign=middle;resizable=0;points=[];labelBackgroundColor=#ffffff;" vertex="1" connectable="0" parent="cQsBoIsvARez0R9mO50q-17">
          <mxGeometry x="-0.22" relative="1" as="geometry">
            <mxPoint as="offset" />
          </mxGeometry>
        </mxCell>
        <mxCell id="cQsBoIsvARez0R9mO50q-12" value="events&lt;br&gt;用户行为日志" style="rounded=0;whiteSpace=wrap;html=1;" vertex="1" parent="1">
          <mxGeometry x="345" y="330" width="120" height="50" as="geometry" />
        </mxCell>
        <mxCell id="cQsBoIsvARez0R9mO50q-24" style="edgeStyle=orthogonalEdgeStyle;rounded=0;orthogonalLoop=1;jettySize=auto;html=1;entryX=0.5;entryY=0;entryDx=0;entryDy=0;" edge="1" parent="1" source="cQsBoIsvARez0R9mO50q-15" target="cQsBoIsvARez0R9mO50q-19">
          <mxGeometry relative="1" as="geometry" />
        </mxCell>
        <mxCell id="cQsBoIsvARez0R9mO50q-25" value="维护一个channel-&amp;gt;events的映射" style="text;html=1;align=center;verticalAlign=middle;resizable=0;points=[];labelBackgroundColor=#ffffff;" vertex="1" connectable="0" parent="cQsBoIsvARez0R9mO50q-24">
          <mxGeometry x="0.119" y="1" relative="1" as="geometry">
            <mxPoint x="39.48" y="-0.97" as="offset" />
          </mxGeometry>
        </mxCell>
        <mxCell id="cQsBoIsvARez0R9mO50q-26" style="edgeStyle=orthogonalEdgeStyle;rounded=0;orthogonalLoop=1;jettySize=auto;html=1;entryX=0.5;entryY=0;entryDx=0;entryDy=0;" edge="1" parent="1" source="cQsBoIsvARez0R9mO50q-15" target="cQsBoIsvARez0R9mO50q-21">
          <mxGeometry relative="1" as="geometry" />
        </mxCell>
        <mxCell id="cQsBoIsvARez0R9mO50q-27" value="链式处理event" style="text;html=1;align=center;verticalAlign=middle;resizable=0;points=[];labelBackgroundColor=#ffffff;" vertex="1" connectable="0" parent="cQsBoIsvARez0R9mO50q-26">
          <mxGeometry x="0.0172" y="3" relative="1" as="geometry">
            <mxPoint as="offset" />
          </mxGeometry>
        </mxCell>
        <mxCell id="cQsBoIsvARez0R9mO50q-15" value="ChannelProcessor&lt;br&gt;Event处理器" style="rounded=0;whiteSpace=wrap;html=1;" vertex="1" parent="1">
          <mxGeometry x="345" y="430" width="120" height="50" as="geometry" />
        </mxCell>
        <mxCell id="cQsBoIsvARez0R9mO50q-29" style="edgeStyle=orthogonalEdgeStyle;rounded=0;orthogonalLoop=1;jettySize=auto;html=1;entryX=0.5;entryY=0;entryDx=0;entryDy=0;" edge="1" parent="1" source="cQsBoIsvARez0R9mO50q-19" target="cQsBoIsvARez0R9mO50q-28">
          <mxGeometry relative="1" as="geometry" />
        </mxCell>
        <mxCell id="cQsBoIsvARez0R9mO50q-19" value="Channels&lt;br&gt;选择出来的路由Channel" style="rounded=0;whiteSpace=wrap;html=1;" vertex="1" parent="1">
          <mxGeometry x="80" y="500" width="140" height="50" as="geometry" />
        </mxCell>
        <mxCell id="cQsBoIsvARez0R9mO50q-22" style="edgeStyle=orthogonalEdgeStyle;rounded=0;orthogonalLoop=1;jettySize=auto;html=1;entryX=1;entryY=0.5;entryDx=0;entryDy=0;" edge="1" parent="1" source="cQsBoIsvARez0R9mO50q-20" target="cQsBoIsvARez0R9mO50q-19">
          <mxGeometry relative="1" as="geometry" />
        </mxCell>
        <mxCell id="cQsBoIsvARez0R9mO50q-23" value="选择" style="text;html=1;align=center;verticalAlign=middle;resizable=0;points=[];labelBackgroundColor=#ffffff;" vertex="1" connectable="0" parent="cQsBoIsvARez0R9mO50q-22">
          <mxGeometry x="0.1658" relative="1" as="geometry">
            <mxPoint as="offset" />
          </mxGeometry>
        </mxCell>
        <mxCell id="cQsBoIsvARez0R9mO50q-20" value="ChannelSelector&lt;br&gt;Channel路由选择器" style="rounded=0;whiteSpace=wrap;html=1;" vertex="1" parent="1">
          <mxGeometry x="335" y="500" width="140" height="50" as="geometry" />
        </mxCell>
        <mxCell id="cQsBoIsvARez0R9mO50q-21" value="InterceptorChain&lt;br&gt;拦截器链条" style="rounded=0;whiteSpace=wrap;html=1;" vertex="1" parent="1">
          <mxGeometry x="570" y="500" width="140" height="50" as="geometry" />
        </mxCell>
        <mxCell id="cQsBoIsvARez0R9mO50q-31" style="edgeStyle=orthogonalEdgeStyle;rounded=0;orthogonalLoop=1;jettySize=auto;html=1;entryX=0.5;entryY=0;entryDx=0;entryDy=0;" edge="1" parent="1" source="cQsBoIsvARez0R9mO50q-28" target="cQsBoIsvARez0R9mO50q-30">
          <mxGeometry relative="1" as="geometry" />
        </mxCell>
        <mxCell id="cQsBoIsvARez0R9mO50q-32" value="event放入channel" style="text;html=1;align=center;verticalAlign=middle;resizable=0;points=[];labelBackgroundColor=#ffffff;" vertex="1" connectable="0" parent="cQsBoIsvARez0R9mO50q-31">
          <mxGeometry x="-0.2" relative="1" as="geometry">
            <mxPoint as="offset" />
          </mxGeometry>
        </mxCell>
        <mxCell id="cQsBoIsvARez0R9mO50q-28" value="Transaction&lt;br&gt;开启一个Channel的事务" style="rounded=0;whiteSpace=wrap;html=1;" vertex="1" parent="1">
          <mxGeometry x="80" y="585" width="140" height="50" as="geometry" />
        </mxCell>
        <mxCell id="cQsBoIsvARez0R9mO50q-34" style="edgeStyle=orthogonalEdgeStyle;rounded=0;orthogonalLoop=1;jettySize=auto;html=1;entryX=0;entryY=0.5;entryDx=0;entryDy=0;" edge="1" parent="1" source="cQsBoIsvARez0R9mO50q-30" target="cQsBoIsvARez0R9mO50q-33">
          <mxGeometry relative="1" as="geometry" />
        </mxCell>
        <mxCell id="cQsBoIsvARez0R9mO50q-38" style="edgeStyle=orthogonalEdgeStyle;rounded=0;orthogonalLoop=1;jettySize=auto;html=1;" edge="1" parent="1" source="cQsBoIsvARez0R9mO50q-30" target="cQsBoIsvARez0R9mO50q-37">
          <mxGeometry relative="1" as="geometry" />
        </mxCell>
        <mxCell id="cQsBoIsvARez0R9mO50q-30" value="Channel" style="rounded=0;whiteSpace=wrap;html=1;" vertex="1" parent="1">
          <mxGeometry x="80" y="680" width="140" height="50" as="geometry" />
        </mxCell>
        <mxCell id="cQsBoIsvARez0R9mO50q-36" style="edgeStyle=orthogonalEdgeStyle;rounded=0;orthogonalLoop=1;jettySize=auto;html=1;" edge="1" parent="1" source="cQsBoIsvARez0R9mO50q-33" target="cQsBoIsvARez0R9mO50q-35">
          <mxGeometry relative="1" as="geometry" />
        </mxCell>
        <mxCell id="cQsBoIsvARez0R9mO50q-33" value="发生异常" style="rhombus;whiteSpace=wrap;html=1;" vertex="1" parent="1">
          <mxGeometry x="320" y="665" width="80" height="80" as="geometry" />
        </mxCell>
        <mxCell id="cQsBoIsvARez0R9mO50q-35" value="Transaction&lt;br&gt;回滚一个Channel的事务" style="rounded=0;whiteSpace=wrap;html=1;" vertex="1" parent="1">
          <mxGeometry x="290" y="780" width="140" height="50" as="geometry" />
        </mxCell>
        <mxCell id="cQsBoIsvARez0R9mO50q-37" value="Transaction&lt;br&gt;提交一个Channel的事务" style="rounded=0;whiteSpace=wrap;html=1;" vertex="1" parent="1">
          <mxGeometry x="80" y="780" width="140" height="50" as="geometry" />
        </mxCell>
      </root>
    </mxGraphModel>
  </diagram>
</mxfile>
